<?xml version="1.0" encoding="UTF-8" standalone="no"?>
<!-- public/icons/calculator.svg -->

<svg
   width="30"
   height="30"
   viewBox="0 0 99.999999 99.999999"
   version="1.1"
   id="svg2"
   sodipodi:docname="aps.svg"
   inkscape:version="1.4 (86a8ad7, 2024-10-11)"
   xmlns:inkscape="http://www.inkscape.org/namespaces/inkscape"
   xmlns:sodipodi="http://sodipodi.sourceforge.net/DTD/sodipodi-0.dtd"
   xmlns="http://www.w3.org/2000/svg"
   xmlns:svg="http://www.w3.org/2000/svg">
  <defs
     id="defs2" />
  <sodipodi:namedview
     id="namedview2"
     pagecolor="#ffffff"
     bordercolor="#000000"
     borderopacity="0.25"
     inkscape:showpageshadow="2"
     inkscape:pageopacity="0.0"
     inkscape:pagecheckerboard="0"
     inkscape:deskcolor="#d1d1d1"
     inkscape:zoom="8.07"
     inkscape:cx="50"
     inkscape:cy="50"
     inkscape:window-width="1920"
     inkscape:window-height="1009"
     inkscape:window-x="-8"
     inkscape:window-y="-8"
     inkscape:window-maximized="1"
     inkscape:current-layer="svg2" />
  <path
     d="M 50,50 M 2,50 a 48,48 0 1 1 96,0 48,48 0 1 1 -96,0"
     fill="none"
     stroke="currentColor"
     stroke-width="4"
     id="path1" />
  <path
     d="m 37.61,67 h -6.29 l -2.5,-6.5 H 17.37 L 15.01,67 H 8.88 L 20.03,38.37 h 6.11 z M 26.96,55.67 23.02,45.05 19.15,55.67 Z M 40.67,67 V 38.37 h 9.28 q 5.27,0 6.88,0.43 2.46,0.64 4.12,2.81 1.66,2.15 1.66,5.57 0,2.64 -0.96,4.43 -0.96,1.8 -2.44,2.83 -1.46,1.02 -2.99,1.35 -2.07,0.41 -6,0.41 H 46.46 V 67 Z m 5.79,-23.79 v 8.13 h 3.16 q 3.42,0 4.57,-0.45 1.15,-0.45 1.8,-1.41 0.66,-0.96 0.66,-2.23 0,-1.56 -0.92,-2.58 -0.92,-1.02 -2.32,-1.27 -1.04,-0.2 -4.16,-0.2 z m 19.43,14.47 5.62,-0.54 q 0.51,2.83 2.05,4.16 1.56,1.33 4.2,1.33 2.79,0 4.2,-1.17 1.43,-1.19 1.43,-2.77 0,-1.02 -0.61,-1.72 -0.59,-0.72 -2.07,-1.25 -1.02,-0.35 -4.63,-1.25 -4.65,-1.15 -6.52,-2.83 -2.64,-2.36 -2.64,-5.76 0,-2.19 1.23,-4.08 1.25,-1.91 3.57,-2.91 2.34,-1 5.64,-1 5.39,0 8.11,2.36 2.73,2.36 2.87,6.31 l -5.78,0.25 q -0.37,-2.21 -1.6,-3.16 -1.21,-0.98 -3.65,-0.98 -2.52,0 -3.95,1.04 -0.92,0.66 -0.92,1.78 0,1.02 0.86,1.74 1.09,0.92 5.31,1.91 4.22,1 6.23,2.07 2.03,1.05 3.16,2.91 1.15,1.84 1.15,4.55 0,2.46 -1.37,4.61 -1.37,2.15 -3.87,3.2 -2.5,1.04 -6.23,1.04 -5.43,0 -8.34,-2.5 -2.91,-2.52 -3.48,-7.32 z"
     fill="currentColor"
     id="path2" />
</svg>
