<svg xmlns="http://www.w3.org/2000/svg"
     width="24"
     height="24"
     viewBox="0 0 24 24">
  <path
    d="m11.32,6.41v13.68s-3.01,-3.15 -6.45,-2.87c-2.08,0.14 -2.08,-0.07 -2.08,-2.87v-10.67c0.14,-1.22 1.6,-0.94 2.47,-0.86 0.93,0.07 4.09,0.57 6.06,3.58zM1.43,5.19v8.74c0,3.22 0.14,4.65 3.94,4.5 4.65,-0.21 5.65,2.72 5.65,2.79 0,0 -2.86,-1.5 -6.37,-1.5 -1.14,0.07 -3.28,0.86 -3.99,0.14 -0.86,-0.79 -0.64,-2.94 -0.64,-4.59v-8.53c0,-0.79 0.36,-1.86 1.43,-1.57zM22.57,5.19v8.74c0,3.22 -0.14,4.65 -3.94,4.5 -4.65,-0.21 -5.65,2.72 -5.65,2.79 0,0 2.86,-1.5 6.37,-1.5 1.14,0.07 3.28,0.86 3.99,0.14 0.79,-0.79 0.64,-2.94 0.64,-4.59v-8.53c0,-0.79 -0.36,-1.86 -1.43,-1.57zM12.68,6.41v13.68s3.01,-3.15 6.45,-2.87c2.08,0.14 2.08,-0.07 2.08,-2.87v-10.67c-0.14,-1.22 -1.6,-0.94 -2.47,-0.86 -0.93,0.07 -4.09,0.57 -6.06,3.58z"
    fill="currentColor"/>
</svg>
