<?xml version="1.0" encoding="UTF-8"?>
<svg version="1.1" xmlns="http://www.w3.org/2000/svg" width="912" height="1280">
<path d="M0 0 C4.11573139 0.35258325 8.23392753 0.65756184 12.35351562 0.9609375 C29.58244705 2.24897721 46.60822276 3.80771711 63.55664062 7.3046875 C65.06411865 7.61164551 65.06411865 7.61164551 66.60205078 7.92480469 C82.51358172 11.2456015 97.5560656 16.05877018 112.55664062 22.3046875 C113.35569824 22.63726562 114.15475586 22.96984375 114.97802734 23.3125 C133.97716477 31.38293006 150.52851504 43.24976885 165.55664062 57.3046875 C166.87148437 58.52091797 166.87148437 58.52091797 168.21289062 59.76171875 C181.09758128 72.10954729 190.4727664 86.47993505 198.55664062 102.3046875 C198.89034668 102.9529248 199.22405273 103.60116211 199.56787109 104.26904297 C223.8212088 151.96851564 223.44532505 209.37640631 213.18164062 260.7421875 C213.04088104 261.45714386 212.90012146 262.17210022 212.75509644 262.90872192 C210.69048282 273.28143522 207.87742846 283.2675994 204.55664062 293.3046875 C204.26176758 294.21549072 203.96689453 295.12629395 203.66308594 296.06469727 C186.75816788 347.77605285 186.75816788 347.77605285 175.55664062 354.3046875 C172.61914062 354.8046875 172.61914062 354.8046875 169.55664062 354.3046875 C165.45782049 351.1281019 162.89099242 346.96768718 160.11523438 342.65625 C158.10941649 339.62992827 155.90420536 336.7842889 153.65820312 333.93359375 C152.55664062 332.3046875 152.55664062 332.3046875 152.55664062 330.3046875 C151.56664062 329.9746875 150.57664062 329.6446875 149.55664062 329.3046875 C144.55664062 323.83957122 144.55664062 323.83957122 144.55664062 321.3046875 C143.69039062 320.93150391 143.69039062 320.93150391 142.80664062 320.55078125 C140.23879246 319.12865701 138.57915018 317.48845241 136.55664062 315.3671875 C134.54152795 313.26155218 132.67002039 311.38676973 130.30664062 309.67578125 C129.44039062 308.99708984 129.44039062 308.99708984 128.55664062 308.3046875 C128.55664062 307.6446875 128.55664062 306.9846875 128.55664062 306.3046875 C127.98042969 306.04816406 127.40421875 305.79164063 126.81054688 305.52734375 C123.58173952 303.77584167 121.14513809 301.34320436 118.45898438 298.86328125 C116.53780169 297.1002846 116.53780169 297.1002846 113.55664062 296.3046875 C112.44067137 295.154901 111.32625228 294.00355923 110.22070312 292.84375 C106.22275437 289.14611665 101.43212027 285.74242732 96.55664062 283.3046875 C96.55664062 282.6446875 96.55664062 281.9846875 96.55664062 281.3046875 C95.97221191 281.03043945 95.3877832 280.75619141 94.78564453 280.47363281 C92.62156016 279.33873293 90.82287691 278.09391998 88.89257812 276.6015625 C85.92722975 274.33871437 82.93873857 272.12024147 79.90820312 269.9453125 C79.13089844 269.38714844 78.35359375 268.82898438 77.55273438 268.25390625 C75.94912207 267.1046948 74.34493945 265.95627882 72.74023438 264.80859375 C71.58587891 263.97908203 71.58587891 263.97908203 70.40820312 263.1328125 C69.71549316 262.6368457 69.0227832 262.14087891 68.30908203 261.62988281 C66.55664062 260.3046875 66.55664062 260.3046875 64.55664062 258.3046875 C63.56664062 257.6446875 62.57664062 256.9846875 61.55664062 256.3046875 C61.55664062 255.6446875 61.55664062 254.9846875 61.55664062 254.3046875 C59.90664063 253.6446875 58.25664063 252.9846875 56.55664062 252.3046875 C56.55664062 251.6446875 56.55664062 250.9846875 56.55664062 250.3046875 C55.89664063 250.3046875 55.23664062 250.3046875 54.55664062 250.3046875 C54.55664062 249.6446875 54.55664062 248.9846875 54.55664062 248.3046875 C53.72132813 247.9334375 53.72132813 247.9334375 52.86914062 247.5546875 C50.13253149 246.07543932 47.88013193 244.37001311 45.55664062 242.3046875 C45.55664062 241.6446875 45.55664062 240.9846875 45.55664062 240.3046875 C45.01394531 240.08683594 44.47125 239.86898437 43.91210938 239.64453125 C40.75973299 237.85138846 38.38878947 235.43437689 35.86914062 232.8671875 C35.07467529 232.06039551 35.07467529 232.06039551 34.26416016 231.23730469 C13.3737588 209.76048398 -0.10819105 183.55459476 -1.44335938 153.3046875 C-1.50523437 152.07298828 -1.50523437 152.07298828 -1.56835938 150.81640625 C-1.94077938 135.84977715 0.38583387 121.37833853 4.53320312 107.05078125 C5.6884121 103.46959372 5.6884121 103.46959372 5.55664062 100.3046875 C4.30947266 101.47837891 4.30947266 101.47837891 3.03710938 102.67578125 C1.93968622 103.69816693 0.8420171 104.72028863 -0.25585938 105.7421875 C-0.80306641 106.25845703 -1.35027344 106.77472656 -1.9140625 107.30664062 C-4.40395879 109.61545355 -6.1841148 111.21827264 -9.44335938 112.3046875 C-9.44335938 112.9646875 -9.44335938 113.6246875 -9.44335938 114.3046875 C-11.12304688 115.92578125 -11.12304688 115.92578125 -13.31835938 117.7421875 C-15.90529659 119.88869634 -17.55520312 121.47245312 -19.44335938 124.3046875 C-20.10335937 124.3046875 -20.76335938 124.3046875 -21.44335938 124.3046875 C-21.44335938 124.9646875 -21.44335938 125.6246875 -21.44335938 126.3046875 C-22.10335937 126.3046875 -22.76335938 126.3046875 -23.44335938 126.3046875 C-23.78947266 127.13613281 -23.78947266 127.13613281 -24.14257812 127.984375 C-25.79596304 130.9336562 -27.89679462 133.00499723 -30.25585938 135.4296875 C-42.26953563 148.19421853 -51.71101818 163.17237621 -60.44335938 178.3046875 C-60.99781738 179.2647168 -60.99781738 179.2647168 -61.56347656 180.24414062 C-89.11488461 228.54163196 -94.81772728 281.73912618 -94.44335938 336.3046875 C-92.81914063 336.2428125 -92.81914063 336.2428125 -91.16210938 336.1796875 C-45.56853905 336.25967622 0.31934806 365.19179112 31.68164062 396.1171875 C38.25487248 402.72837313 44.09501567 409.75547093 49.55664062 417.3046875 C49.96833496 417.87203613 50.3800293 418.43938477 50.80419922 419.02392578 C75.68006408 453.77132197 89.21622815 494.15275591 88.94775391 536.82983398 C88.93163562 539.86813085 88.94772371 542.90510175 88.96679688 545.94335938 C88.98046612 558.0370257 88.04985949 569.47006023 85.55664062 581.3046875 C85.33234375 582.36985596 85.10804688 583.43502441 84.87695312 584.5324707 C84.26065466 587.26542756 83.58724822 589.97183391 82.86914062 592.6796875 C82.61567871 593.63883057 82.3622168 594.59797363 82.10107422 595.58618164 C77.78534295 611.30481536 71.0792762 625.89513203 63.55664062 640.3046875 C62.88656173 641.63630925 62.21795796 642.96869289 61.55664062 644.3046875 C60.89664063 644.3046875 60.23664062 644.3046875 59.55664062 644.3046875 C59.30914063 644.9853125 59.06164062 645.6659375 58.80664062 646.3671875 C56.18318461 652.53230914 52.64694386 657.78363745 48.49414062 662.9921875 C48.02024902 663.59160156 47.54635742 664.19101562 47.05810547 664.80859375 C42.94638263 669.94587646 38.57237091 674.79543383 34.06445312 679.5859375 C32.2835435 681.51664326 30.59681905 683.44159313 28.93554688 685.46875 C26.31464829 688.59317098 23.79744445 690.85608017 20.55664062 693.3046875 C19.89664063 693.3046875 19.23664062 693.3046875 18.55664062 693.3046875 C18.55664062 693.9646875 18.55664062 694.6246875 18.55664062 695.3046875 C16.61243461 696.97544259 14.66964798 698.52414635 12.61914062 700.0546875 C12.02230469 700.50569824 11.42546875 700.95670898 10.81054688 701.42138672 C6.17291119 704.90086285 1.45877554 708.20692147 -3.44335938 711.3046875 C-5.09464844 712.36429688 -5.09464844 712.36429688 -6.77929688 713.4453125 C-7.95832749 714.19114361 -9.13801372 714.93593931 -10.31835938 715.6796875 C-11.40890625 716.36804688 -12.49945312 717.05640625 -13.62304688 717.765625 C-16.44335938 719.3046875 -16.44335938 719.3046875 -19.44335938 719.3046875 C-19.44335938 719.9646875 -19.44335938 720.6246875 -19.44335938 721.3046875 C-23.10098673 722.99167481 -26.7701345 724.65195263 -30.44335938 726.3046875 C-32.06951172 727.04332031 -32.06951172 727.04332031 -33.72851562 727.796875 C-82.79765642 749.54278585 -139.97042923 749.51964869 -189.76074219 730.41552734 C-197.50239977 727.36751496 -205.02992201 724.08570566 -212.44335938 720.3046875 C-212.44335938 719.6446875 -212.44335938 718.9846875 -212.44335938 718.3046875 C-213.24773437 718.0778125 -214.05210937 717.8509375 -214.88085938 717.6171875 C-219.35621677 715.96837162 -223.33057255 713.69924338 -227.44335938 711.3046875 C-227.44335938 710.6446875 -227.44335938 709.9846875 -227.44335938 709.3046875 C-228.14074219 709.06878906 -228.838125 708.83289063 -229.55664062 708.58984375 C-232.96248849 707.07357318 -235.72420079 705.03403453 -238.63085938 702.7421875 C-239.47644409 702.08488647 -239.47644409 702.08488647 -240.33911133 701.41430664 C-244.91640362 697.81541623 -249.25610101 693.98807541 -253.51757812 690.01953125 C-255.33728507 688.24904811 -255.33728507 688.24904811 -257.44335938 687.3046875 C-257.44335938 686.6446875 -257.44335938 685.9846875 -257.44335938 685.3046875 C-258.76335937 684.9746875 -260.08335937 684.6446875 -261.44335938 684.3046875 C-261.81460938 685.1709375 -261.81460938 685.1709375 -262.19335938 686.0546875 C-263.62635926 688.63408729 -265.22760614 690.36590342 -267.44335938 692.3046875 C-268.10335938 692.3046875 -268.76335937 692.3046875 -269.44335938 692.3046875 C-269.44335938 692.9646875 -269.44335938 693.6246875 -269.44335938 694.3046875 C-282.58621652 706.3046875 -282.58621652 706.3046875 -287.44335938 706.3046875 C-287.44335938 706.9646875 -287.44335938 707.6246875 -287.44335938 708.3046875 C-289.9138091 709.94961566 -292.37206898 711.45658408 -294.94335938 712.9296875 C-295.71075439 713.3740918 -296.47814941 713.81849609 -297.26879883 714.27636719 C-309.24864081 721.13883331 -321.60915223 727.20316325 -334.44335938 732.3046875 C-335.47203125 732.72363281 -336.50070312 733.14257812 -337.56054688 733.57421875 C-346.55006815 736.90562957 -355.81109623 738.73146269 -365.19335938 740.5546875 C-365.86253387 740.68560791 -366.53170837 740.81652832 -367.22116089 740.95141602 C-391.16137095 745.59278434 -415.46727976 745.91343262 -439.44335938 741.3046875 C-440.39758789 741.12244629 -441.35181641 740.94020508 -442.33496094 740.75244141 C-454.33409325 738.40785091 -465.99881003 735.63912256 -477.44335938 731.3046875 C-478.95349609 730.73814453 -478.95349609 730.73814453 -480.49414062 730.16015625 C-491.65478772 725.74024435 -502.19633973 719.83565993 -512.39257812 713.53125 C-514.36840499 712.34951736 -516.37108436 711.30574134 -518.44335938 710.3046875 C-518.44335938 709.6446875 -518.44335938 708.9846875 -518.44335938 708.3046875 C-518.97960937 708.0571875 -519.51585937 707.8096875 -520.06835938 707.5546875 C-525.51233302 704.68943821 -530.18329395 700.98561337 -534.81835938 696.9921875 C-535.38635254 696.50580811 -535.9543457 696.01942871 -536.53955078 695.51831055 C-537.66625377 694.55235907 -538.79178225 693.58503558 -539.91601562 692.61621094 C-541.20904993 691.505888 -542.51258122 690.40780733 -543.81835938 689.3125 C-547.79921299 685.93810455 -551.29446476 682.37770132 -554.66601562 678.39453125 C-556.52202524 676.21219027 -558.44766257 674.10626822 -560.38085938 671.9921875 C-572.44335938 658.44252997 -572.44335938 658.44252997 -572.44335938 654.3046875 C-573.10335937 654.3046875 -573.76335937 654.3046875 -574.44335938 654.3046875 C-577.46435736 648.98297578 -580.46162149 643.64848957 -583.44335938 638.3046875 C-583.99515869 637.32048828 -583.99515869 637.32048828 -584.55810547 636.31640625 C-596.84625312 614.30370224 -604.2199046 590.29885993 -607.44335938 565.3046875 C-607.53617188 564.66877686 -607.62898437 564.03286621 -607.72460938 563.37768555 C-614.64433711 511.21405942 -598.6520724 457.32270564 -567.36132812 415.5234375 C-555.00639668 399.73251921 -540.84998627 384.89071012 -524.44335938 373.3046875 C-523.8984082 372.91007324 -523.35345703 372.51545898 -522.79199219 372.10888672 C-492.70552092 350.42046526 -452.20975951 333.4935519 -414.44335938 335.3046875 C-414.40162598 334.34256348 -414.35989258 333.38043945 -414.31689453 332.38916016 C-413.82076802 322.33786309 -412.57681369 312.58229856 -410.81835938 302.6796875 C-410.68775116 301.93133636 -410.55714294 301.18298523 -410.4225769 300.41195679 C-401.51223778 249.54203291 -386.17991333 200.08773607 -361.25585938 154.7421875 C-360.85181885 154.00395752 -360.44777832 153.26572754 -360.03149414 152.50512695 C-357.4435284 147.8611868 -354.5709695 143.60252759 -351.44335938 139.3046875 C-350.74049153 138.10522825 -350.05284186 136.89671882 -349.38085938 135.6796875 C-347.6169184 132.60701612 -345.65772416 130.05355412 -343.44335938 127.3046875 C-343.11335938 126.3146875 -342.78335937 125.3246875 -342.44335938 124.3046875 C-341.78335937 124.3046875 -341.12335938 124.3046875 -340.44335938 124.3046875 C-340.11335938 122.9846875 -339.78335937 121.6646875 -339.44335938 120.3046875 C-338.78335937 120.3046875 -338.12335938 120.3046875 -337.44335938 120.3046875 C-337.17523438 119.7478125 -336.90710938 119.1909375 -336.63085938 118.6171875 C-334.34638691 114.16847796 -332.02917906 110.79090109 -328.44335938 107.3046875 C-323.93983355 102.34892018 -323.93983355 102.34892018 -319.85351562 97.0546875 C-319.38816406 96.4771875 -318.9228125 95.8996875 -318.44335938 95.3046875 C-317.78335937 95.3046875 -317.12335938 95.3046875 -316.44335938 95.3046875 C-316.44335938 94.6446875 -316.44335938 93.9846875 -316.44335938 93.3046875 C-315.06835938 91.6796875 -315.06835938 91.6796875 -313.44335938 90.3046875 C-312.78335937 90.3046875 -312.12335938 90.3046875 -311.44335938 90.3046875 C-311.11335938 89.3146875 -310.78335937 88.3246875 -310.44335938 87.3046875 C-309.78335937 87.3046875 -309.12335938 87.3046875 -308.44335938 87.3046875 C-308.11335938 86.3146875 -307.78335937 85.3246875 -307.44335938 84.3046875 C-306.78335937 84.3046875 -306.12335938 84.3046875 -305.44335938 84.3046875 C-305.44335938 83.6446875 -305.44335938 82.9846875 -305.44335938 82.3046875 C-304.78335937 82.3046875 -304.12335938 82.3046875 -303.44335938 82.3046875 C-303.25773437 81.7478125 -303.07210938 81.1909375 -302.88085938 80.6171875 C-301.12936102 77.79955971 -299.14883664 76.52372565 -296.39257812 74.74609375 C-294.28380201 73.26237111 -294.28380201 73.26237111 -292.10351562 70.953125 C-289.30492024 68.16685823 -286.33366508 65.74678644 -283.19335938 63.3671875 C-282.62705811 62.9355127 -282.06075684 62.50383789 -281.47729492 62.05908203 C-268.58273709 52.3046875 -268.58273709 52.3046875 -265.44335938 52.3046875 C-265.44335938 51.6446875 -265.44335938 50.9846875 -265.44335938 50.3046875 C-264.81171875 49.964375 -264.18007813 49.6240625 -263.52929688 49.2734375 C-258.36146761 46.47357611 -253.25551595 43.60398304 -248.19335938 40.6171875 C-224.13368506 26.75131527 -198.24705126 17.30422972 -171.44335938 10.3046875 C-170.27305176 9.99241211 -169.10274414 9.68013672 -167.89697266 9.35839844 C-157.82857806 6.71819366 -147.72018484 4.80691705 -137.44335938 3.1796875 C-136.23330734 2.98592026 -136.23330734 2.98592026 -134.99880981 2.78823853 C-121.50789219 0.64000324 -108.09304579 -0.98199443 -94.44335938 -1.6953125 C-93.44369141 -1.75557617 -92.44402344 -1.81583984 -91.4140625 -1.87792969 C-61.05328786 -3.6610827 -30.27750883 -2.7010677 0 0 Z M-141.44335938 64.3046875 C-142.72001465 64.56306396 -142.72001465 64.56306396 -144.02246094 64.82666016 C-170.78140993 70.36775801 -196.70584142 79.74870298 -220.44335938 93.3046875 C-221.01054687 93.61954102 -221.57773437 93.93439453 -222.16210938 94.25878906 C-232.74240997 100.14640151 -242.1542297 107.23521024 -251.57495117 114.82177734 C-252.91006114 115.88142166 -254.28412303 116.89271751 -255.6809082 117.86962891 C-256.26251709 118.34319824 -256.84412598 118.81676758 -257.44335938 119.3046875 C-257.44335938 119.9646875 -257.44335938 120.6246875 -257.44335938 121.3046875 C-258.03246094 121.57667969 -258.6215625 121.84867187 -259.22851562 122.12890625 C-264.64492259 125.00428279 -269.32059778 129.80712939 -273.44335938 134.3046875 C-273.44335938 134.9646875 -273.44335938 135.6246875 -273.44335938 136.3046875 C-274.10335937 136.3046875 -274.76335937 136.3046875 -275.44335938 136.3046875 C-277.48791997 138.47733405 -277.48791997 138.47733405 -279.56835938 141.1796875 C-280.2928125 142.08460938 -281.01726562 142.98953125 -281.76367188 143.921875 C-283.63541172 146.09124561 -283.63541172 146.09124561 -283.44335938 148.3046875 C-284.10335937 148.3046875 -284.76335937 148.3046875 -285.44335938 148.3046875 C-287.84156242 150.94153497 -287.84156242 150.94153497 -288.44335938 154.3046875 C-289.10335937 154.3046875 -289.76335937 154.3046875 -290.44335938 154.3046875 C-291.84910646 156.27928563 -293.1514163 158.25815311 -294.44335938 160.3046875 C-295.15492188 161.33722656 -295.86648438 162.36976563 -296.59960938 163.43359375 C-328.4794485 209.8743958 -357.70428646 282.65104687 -355.44335938 340.3046875 C-350.71360039 342.11563126 -345.97941311 343.80516427 -341.1550293 345.34423828 C-312.36426545 354.59262362 -284.14829801 369.87209711 -263.56835938 392.4296875 C-262.86710937 393.0484375 -262.16585937 393.6671875 -261.44335938 394.3046875 C-258.0182912 393.97556222 -256.47861925 392.63358623 -254.21289062 390.1484375 C-250.48173968 386.25333452 -246.44253834 383.03175308 -242.13085938 379.8046875 C-240.99958618 378.95233521 -240.99958618 378.95233521 -239.84545898 378.08276367 C-238.36392769 376.97037993 -236.88005724 375.86110286 -235.39355469 374.75537109 C-233.83896196 373.59896273 -232.29214637 372.43210141 -230.74804688 371.26171875 C-209.57501991 355.73237319 -185.46367047 347.29328138 -160.44335938 340.3046875 C-158.10920727 339.64084913 -155.77623841 338.97299334 -153.44335938 338.3046875 C-153.45383301 337.37648193 -153.46430664 336.44827637 -153.47509766 335.49194336 C-154.05737486 275.52844758 -146.61161054 218.94391885 -120.44335938 164.3046875 C-120.04181641 163.46437988 -119.64027344 162.62407227 -119.2265625 161.75830078 C-113.76355916 150.50278682 -107.24222632 140.07168834 -100.26855469 129.69091797 C-99.64303711 128.75779785 -99.01751953 127.82467773 -98.37304688 126.86328125 C-97.52589111 125.61502563 -97.52589111 125.61502563 -96.66162109 124.34155273 C-95.27225931 122.41418284 -95.27225931 122.41418284 -95.44335938 120.3046875 C-94.78335937 120.3046875 -94.12335938 120.3046875 -93.44335938 120.3046875 C-91.62231737 118.13010472 -91.62231737 118.13010472 -89.81835938 115.4296875 C-89.18671875 114.52476562 -88.55507813 113.61984375 -87.90429688 112.6875 C-86.26912833 110.48635044 -86.26912833 110.48635044 -86.44335938 108.3046875 C-85.78335937 108.3046875 -85.12335938 108.3046875 -84.44335938 108.3046875 C-82.83302843 106.35809971 -81.32098506 104.39486298 -79.81835938 102.3671875 C-73.00183188 93.42020395 -65.28584966 85.35153576 -57.44335938 77.3046875 C-56.46786133 76.30284424 -56.46786133 76.30284424 -55.47265625 75.28076172 C-54.84939453 74.64799316 -54.22613281 74.01522461 -53.58398438 73.36328125 C-53.02743164 72.79794678 -52.47087891 72.2326123 -51.89746094 71.65014648 C-50.44335938 70.3046875 -50.44335938 70.3046875 -48.44335938 69.3046875 C-48.44335938 68.6446875 -48.44335938 67.9846875 -48.44335938 67.3046875 C-47.87101562 67.04816406 -47.29867188 66.79164063 -46.70898438 66.52734375 C-44.21687154 65.18246217 -42.30980857 63.61955632 -40.19335938 61.7421875 C-39.48695313 61.12214844 -38.78054688 60.50210938 -38.05273438 59.86328125 C-37.52164062 59.34894531 -36.99054688 58.83460938 -36.44335938 58.3046875 C-36.44335938 57.9746875 -36.44335938 57.6446875 -36.44335938 57.3046875 C-71.97941078 56.88943011 -106.48726883 57.11775676 -141.44335938 64.3046875 Z " fill="#000000" transform="translate(671.443359375,245.6953125)"/>
<path d="M0 0 C0.33 0.99 0.66 1.98 1 3 C0.360625 3.556875 -0.27875 4.11375 -0.9375 4.6875 C-3.20147144 6.81426883 -3.20147144 6.81426883 -3.4375 9.5625 C-4 12 -4 12 -6.375 13.6875 C-7.24125 14.120625 -8.1075 14.55375 -9 15 C-9.99 15.66 -10.98 16.32 -12 17 C-10.7580393 13.56072421 -9.44259716 10.74792181 -7 8 C-6.34 8 -5.68 8 -5 8 C-4.731875 7.4225 -4.46375 6.845 -4.1875 6.25 C-2.98280141 3.9674132 -1.59201885 2.0262058 0 0 Z " fill="#19171A" transform="translate(592,346)"/>
<path d="M0 0 C0 3.9765245 -1.38011503 5.0890167 -4 8 C-6.0625 9.875 -6.0625 9.875 -8 11 C-8.99 10.67 -9.98 10.34 -11 10 C-9.88121617 8.82737096 -8.75476949 7.66204862 -7.625 6.5 C-6.68527344 5.52546875 -6.68527344 5.52546875 -5.7265625 4.53125 C-4 3 -4 3 -2 3 C-2 2.34 -2 1.68 -2 1 C-1.34 0.67 -0.68 0.34 0 0 Z " fill="#171418" transform="translate(625,312)"/>
<path d="M0 0 C0.33 0.66 0.66 1.32 1 2 C1.66 2.33 2.32 2.66 3 3 C2.34 4.32 1.68 5.64 1 7 C-3.875 5.25 -3.875 5.25 -5 3 C-3.35 2.01 -1.7 1.02 0 0 Z " fill="#09080A" transform="translate(437,944)"/>
<path d="M0 0 C1.32 0.66 2.64 1.32 4 2 C1.31158141 4.25245881 -0.64641875 5.88213958 -4 7 C-3.6875 4.625 -3.6875 4.625 -3 2 C-2.01 1.34 -1.02 0.68 0 0 Z " fill="#0B090C" transform="translate(664,954)"/>
<path d="M0 0 C0.66 0.33 1.32 0.66 2 1 C1.07456291 2.34173403 0.13422595 3.67320159 -0.8125 5 C-1.33457031 5.7425 -1.85664063 6.485 -2.39453125 7.25 C-2.92433594 7.8275 -3.45414062 8.405 -4 9 C-4.99 9 -5.98 9 -7 9 C-6.67 8.01 -6.34 7.02 -6 6 C-5.34 6 -4.68 6 -4 6 C-4 5.34 -4 4.68 -4 4 C-3.34 4 -2.68 4 -2 4 C-1.34 2.68 -0.68 1.36 0 0 Z " fill="#19161C" transform="translate(370,324)"/>
<path d="M0 0 C0.66 0.33 1.32 0.66 2 1 C1.04578192 2.14926266 0.08647955 3.29430541 -0.875 4.4375 C-1.40867187 5.07558594 -1.94234375 5.71367187 -2.4921875 6.37109375 C-4 8 -4 8 -6 9 C-6.33 8.01 -6.66 7.02 -7 6 C-4.69 4.02 -2.38 2.04 0 0 Z " fill="#17151A" transform="translate(391,307)"/>
<path d="M0 0 C-1 3 -1 3 -3 4 C-2.67 4.66 -2.34 5.32 -2 6 C-3.65 6.33 -5.3 6.66 -7 7 C-6.75 4.625 -6.75 4.625 -6 2 C-3.84898936 0.54286376 -2.59713506 0 0 0 Z " fill="#121014" transform="translate(472,599)"/>
<path d="M0 0 C0.66 0.99 1.32 1.98 2 3 C0.49336217 6.01327566 -2.03166411 6.61056618 -5 8 C-4.67 6.68 -4.34 5.36 -4 4 C-3.34 4 -2.68 4 -2 4 C-1.34 2.68 -0.68 1.36 0 0 Z " fill="#1F1C20" transform="translate(336,362)"/>
<path d="M0 0 C0.66 0.66 1.32 1.32 2 2 C1.625 4.125 1.625 4.125 1 6 C0.67 5.34 0.34 4.68 0 4 C-1.32 5.32 -2.64 6.64 -4 8 C-4.66 7.67 -5.32 7.34 -6 7 C-4.02 4.69 -2.04 2.38 0 0 Z " fill="#1A161B" transform="translate(349,346)"/>
<path d="M0 0 C1.10844919 3.32534757 0.84454356 5.62182575 0 9 C-0.66 9 -1.32 9 -2 9 C-2.33 9.66 -2.66 10.32 -3 11 C-2.69078116 9.54096742 -2.37751201 8.08279278 -2.0625 6.625 C-1.88847656 5.81289063 -1.71445313 5.00078125 -1.53515625 4.1640625 C-1 2 -1 2 0 0 Z " fill="#110F12" transform="translate(75,715)"/>
<path d="M0 0 C0.33 0.66 0.66 1.32 1 2 C1.66 2.33 2.32 2.66 3 3 C2.01 4.485 2.01 4.485 1 6 C-2 6 -2 6 -4 5 C-2.68 3.35 -1.36 1.7 0 0 Z " fill="#151217" transform="translate(597,340)"/>
<path d="M0 0 C0.33 0 0.66 0 1 0 C1.33 1.98 1.66 3.96 2 6 C0.35 6.66 -1.3 7.32 -3 8 C-1.125 2.25 -1.125 2.25 0 0 Z " fill="#121013" transform="translate(86,690)"/>
</svg>
