<?xml version="1.0" encoding="UTF-8" standalone="no"?>
<svg
   width="17.624001"
   height="21.863731"
   viewBox="0 0 881.2 1093.1867"
   version="1.1"
   id="svg3"
   sodipodi:docname="plant.svg"
   inkscape:version="1.4 (86a8ad7, 2024-10-11)"
   xmlns:inkscape="http://www.inkscape.org/namespaces/inkscape"
   xmlns:sodipodi="http://sodipodi.sourceforge.net/DTD/sodipodi-0.dtd"
   xmlns="http://www.w3.org/2000/svg"
   xmlns:svg="http://www.w3.org/2000/svg">
  <defs
     id="defs3" />
  <sodipodi:namedview
     id="namedview3"
     pagecolor="#ffffff"
     bordercolor="#000000"
     borderopacity="0.25"
     inkscape:showpageshadow="2"
     inkscape:pageopacity="0.0"
     inkscape:pagecheckerboard="0"
     inkscape:deskcolor="#d1d1d1"
     inkscape:zoom="15.216938"
     inkscape:cx="28.750857"
     inkscape:cy="21.456354"
     inkscape:window-width="1920"
     inkscape:window-height="1009"
     inkscape:window-x="-8"
     inkscape:window-y="-8"
     inkscape:window-maximized="1"
     inkscape:current-layer="svg3" />
  <path
     d="m 384.50137,552.62201 c 53.6,6.2 106.4,18.2 157.3,36 11.7,4.2 21.5,12.4 27.6,23.2 6.2,10.8 8.3,23.4 6,35.6 -0.7,3.4 -1.7,6.7 -2.9,10 l 188,-63.6 c 4.5,-1.4 9.2,-2.1 13.9,-2.3 v -1.8 c 0,-88.2 -84,-160.1 -188.6,-164 0,-1.4 0.7,-8 0.7,-19.2 4.4,-35 15.9,-68.7 33.7,-99.1 175.8,19.8 153.4,-177.2 153.4,-177.2 l -3.4,-3 c 0,0 -195.4,-3.8 -162.7,165.5 v 0 c -10.1,16.9 -18.6,34.8 -25.3,53.3 -6.7,-48 -21.9,-94.5 -44.9,-137.2 32.8,-169.799997 -163.1,-166.099997 -163.1,-166.099997 l -3.2,3 c 0,0 -22.6,196.799997 153,177.199997 v 0 c 28.7,55.7 44,117.3 44.6,180 -0.9,7.4 -1.2,14.9 -0.8,22.4 -89.8,3.7 -163.8,56.8 -183.4,127.3 z"
     fill="currentColor"
     id="path1" />
  <path
     d="m 766.10137,610.92201 -220,74 c -9.2,4.3 -19.4,5.9 -29.4,4.4 l -86.5,-12 c -2.4,-0.3 -4.5,-1.6 -6,-3.5 -1.4,-1.9 -2.1,-4.3 -1.7,-6.7 0.7,-4.9 5.2,-8.3 10.1,-7.7 l 86.6,12 c 6.4,0.9 12.9,0.1 18.8,-2.5 l 1.1,-0.6 v 0 c 8.1,-4 14.2,-11 17.2,-19.5 2.9,-8.5 2.4,-17.8 -1.4,-26 -3.8,-8.2 -10.8,-14.4 -19.2,-17.5 -53.8,-18.8 -109.6,-30.9 -166.3,-36 -74.2,-5.3 -139.8,88.7 -140.4,89.6 l -69.7,82.9 160.9,119 52.4,-58.1 v 0 c 1.8,-1.9 4.2,-3 6.8,-3 1.3,0 134.3,3 185.2,-1.9 36,-3.5 174.5,-78 234.2,-126.5 v 0 c 8.5,-7 13.2,-17.5 12.8,-28.5 -0.4,-11 -5.8,-21.1 -14.8,-27.5 -8.9,-6.4 -20.3,-8.2 -30.8,-5 z"
     fill="currentColor"
     id="path2" />
  <path
     d="m 46.001373,828.72201 71.199997,-95.7 220.4,163.8 -71.2,95.7 z"
     fill="currentColor"
     id="path3" />
</svg>
